{"glyphs":{"0":{"ha":939,"x_min":3,"x_max":939,"o":"m 788 142 q 694 51 750 92 q 573 -12 639 11 q 436 -37 507 -35 q 298 -17 365 -40 q 173 58 231 6 q 75 197 115 110 q 17 392 31 294 q 15 583 3 490 q 63 759 28 675 q 152 913 99 843 q 274 1035 206 982 q 422 1117 343 1088 q 566 1141 497 1146 q 690 1111 635 1136 q 788 1047 746 1086 q 850 965 829 1007 q 915 788 890 888 q 936 581 939 689 q 899 360 933 472 q 788 142 864 247 m 592 707 q 519 776 565 768 q 428 748 472 783 q 352 638 383 713 q 328 461 321 564 q 365 324 333 365 q 438 283 397 283 q 519 317 479 283 q 579 403 558 350 q 608 502 600 457 q 616 585 617 547 q 608 653 615 622 q 592 707 601 683 z "},"1":{"ha":719,"x_min":-4,"x_max":653,"o":"m 132 678 l -4 853 l 269 1113 l 653 1151 l 600 -18 l 260 26 l 256 782 l 132 678 z "},"2":{"ha":936,"x_min":-14,"x_max":944,"o":"m 888 964 q 928 774 944 863 q 849 610 911 686 q 694 467 786 533 q 510 343 603 401 l 886 386 l 878 35 l 54 -7 l 53 206 q 63 282 43 240 q 119 369 82 324 q 207 460 157 414 q 310 553 257 507 q 412 641 363 599 q 497 719 461 683 q 551 782 533 754 q 557 825 568 810 q 493 835 540 847 q 388 791 446 822 q 272 718 331 760 q 172 640 213 676 l -14 908 q 228 1092 115 1031 q 431 1171 340 1154 q 597 1172 522 1188 q 724 1124 671 1157 q 815 1053 778 1090 q 869 991 853 1017 q 888 964 886 965 z "},"3":{"ha":886,"x_min":-7,"x_max":889,"o":"m 697 633 q 831 512 789 579 q 881 380 872 444 q 878 258 889 315 q 853 170 867 201 q 838 136 839 139 q 819 109 838 136 q 759 49 800 82 q 652 -9 718 17 q 492 -31 586 -35 q 274 16 399 -28 q -7 165 150 60 l 197 457 q 360 362 297 385 q 457 341 422 339 q 504 356 492 343 q 517 369 517 369 q 522 385 517 371 q 525 422 528 400 q 502 464 522 444 q 432 494 482 483 q 293 496 382 504 l 308 733 q 442 738 403 725 q 491 772 482 751 q 492 809 500 792 q 483 826 483 826 q 469 840 483 826 q 419 858 454 854 q 323 844 383 861 q 172 764 263 826 l 36 1017 q 289 1145 172 1113 q 493 1172 406 1178 q 644 1138 581 1165 q 737 1087 707 1111 q 769 1060 767 1063 q 790 1034 771 1058 q 830 965 810 1010 q 852 867 850 921 q 820 751 854 813 q 697 633 786 690 z "},"4":{"ha":838,"x_min":-7,"x_max":854,"o":"m 458 1163 l 799 1057 l 279 568 l 421 568 l 425 649 l 744 649 l 731 567 l 854 589 l 835 267 l 711 265 l 696 11 l 342 -4 l 367 263 l 22 236 l -7 699 l 458 1163 z "},"5":{"ha":793,"x_min":4,"x_max":790,"o":"m 304 749 q 463 763 379 769 q 617 722 546 756 q 736 631 688 689 q 790 489 785 572 q 790 458 790 488 q 780 382 790 431 q 744 278 769 333 q 670 167 719 222 q 542 71 621 113 q 346 8 464 29 q 67 0 228 -12 l 4 325 q 187 308 113 301 q 305 337 261 314 q 373 389 349 360 q 404 438 397 418 q 411 460 411 458 q 401 502 417 486 q 355 526 385 518 q 285 534 325 533 q 204 530 246 535 q 121 514 163 525 q 47 489 79 503 l 94 1088 l 754 1119 l 761 843 l 339 847 l 304 749 l 304 749 z "},"6":{"ha":779,"x_min":-25,"x_max":814,"o":"m 707 663 q 803 475 792 571 q 775 292 814 379 q 660 135 736 206 q 492 25 583 65 q 308 -17 401 -15 q 144 29 215 -19 q 117 53 143 31 q 58 122 92 75 q -1 239 24 169 q -23 403 -25 308 q 25 616 -21 499 q 176 877 71 733 q 465 1186 282 1021 l 678 981 q 577 892 624 938 q 497 810 531 847 q 443 749 463 772 q 424 725 424 725 q 510 749 468 749 q 588 738 553 750 q 650 708 622 726 q 692 677 678 690 q 707 663 706 664 m 435 294 q 501 368 481 322 q 504 454 521 414 q 442 503 488 494 q 351 485 397 511 q 285 411 306 457 q 282 325 265 365 q 343 276 299 285 q 435 294 388 268 z "},"7":{"ha":749,"x_min":-11,"x_max":778,"o":"m 778 1146 l 654 721 l 744 724 l 700 471 l 601 467 l 488 -6 l 106 39 l 236 456 l 125 451 l 140 699 l 314 708 l 368 840 l 8 797 l -11 1103 l 778 1146 z "},"8":{"ha":839,"x_min":-12,"x_max":832,"o":"m 769 585 q 816 472 800 535 q 824 342 832 410 q 778 205 815 274 q 665 74 740 136 q 577 21 629 43 q 465 -13 525 -1 q 342 -24 406 -25 q 221 -5 279 -22 q 114 47 163 13 q 35 138 65 82 q -6 261 1 200 q 3 379 -12 322 q 55 487 19 436 q 142 579 90 538 q 94 640 113 606 q 57 807 49 725 q 114 957 65 889 q 243 1075 163 1025 q 422 1146 324 1125 q 539 1153 485 1158 q 637 1133 593 1149 q 712 1093 681 1117 q 758 1044 743 1069 q 798 956 783 1004 q 810 853 813 907 q 787 744 808 800 q 719 636 765 689 q 769 585 751 614 m 494 876 q 456 906 482 901 q 405 897 431 910 q 359 855 379 883 q 339 785 339 826 q 356 728 339 746 q 394 710 372 711 q 440 722 417 710 q 476 756 463 735 q 503 826 503 797 q 494 876 503 857 m 474 257 q 510 351 510 313 q 497 417 510 390 q 447 456 481 450 q 378 445 413 463 q 318 389 344 428 q 292 296 292 350 q 313 222 292 244 q 365 197 335 199 q 425 213 394 196 q 474 257 456 229 z "},"9":{"ha":789,"x_min":-26,"x_max":810,"o":"m 79 476 q -6 617 15 544 q -16 758 -26 689 q 33 890 -6 826 q 126 1004 71 953 q 248 1092 181 1056 q 385 1146 315 1129 q 521 1155 454 1163 q 640 1110 588 1147 q 667 1086 642 1108 q 727 1017 693 1064 q 785 900 761 969 q 808 735 810 831 q 761 523 807 640 q 610 262 715 406 q 321 -47 504 118 l 107 160 q 208 248 161 203 q 290 330 256 293 q 343 390 324 367 q 363 414 363 414 q 276 390 318 390 q 199 401 233 389 q 136 431 164 413 q 94 462 108 449 q 79 476 81 475 m 351 844 q 285 771 306 817 q 282 685 264 725 q 343 637 299 646 q 433 656 388 628 q 500 728 479 682 q 504 814 521 775 q 442 863 486 854 q 351 844 397 871 z "}," ":{"ha":417,"x_min":0,"x_max":0,"o":""},"%":{"ha":1039,"x_min":321,"x_max":1022,"o":"m 632 763 q 676 851 663 806 q 692 940 690 896 q 684 1022 693 983 q 658 1093 675 1061 q 633 1126 650 1110 q 594 1151 617 1142 q 544 1163 571 1161 q 486 1153 517 1164 q 401 1097 439 1135 q 343 1010 364 1060 q 322 901 322 960 q 347 785 321 843 q 410 711 371 732 q 492 692 450 690 q 572 713 533 693 q 632 763 610 732 m 554 989 q 564 940 563 969 q 549 868 565 911 q 524 833 540 847 q 492 819 508 819 q 463 836 476 819 q 449 890 450 853 q 458 962 446 932 q 488 1006 471 992 q 524 1017 506 1021 q 554 989 543 1014 m 963 64 q 1007 151 993 106 q 1022 240 1021 196 q 1013 322 1022 283 q 988 393 1004 361 q 963 426 979 410 q 924 452 946 442 q 874 464 901 463 q 817 454 847 465 q 731 399 769 436 q 672 311 693 361 q 651 203 651 261 q 678 86 650 144 q 741 13 701 33 q 822 -7 781 -8 q 902 14 864 -6 q 963 64 940 33 m 885 290 q 894 242 892 271 q 879 168 896 213 q 855 133 871 147 q 822 119 839 119 q 794 136 807 119 q 779 192 781 153 q 789 263 776 233 q 819 306 801 292 q 855 318 836 321 q 885 290 874 315 m 890 1165 l 1018 1132 l 461 -7 l 356 39 l 890 1165 z "},"&":{"ha":1174,"x_min":-19,"x_max":1217,"o":"m 785 117 q 624 24 706 54 q 443 -12 543 -6 q 282 -9 361 -19 q 139 35 203 1 q 33 131 75 69 q -15 286 -8 192 q -3 399 -19 347 q 47 490 14 450 q 126 557 81 529 q 226 600 172 585 q 144 689 175 640 q 107 804 113 738 q 132 947 100 886 q 219 1049 164 1008 q 344 1113 274 1090 q 485 1142 414 1136 q 624 1137 551 1147 q 759 1097 697 1126 q 863 1014 821 1067 q 913 883 906 961 q 904 787 917 835 q 866 697 892 739 q 803 623 840 656 q 722 574 767 590 l 831 479 q 915 565 879 517 q 988 661 951 613 l 1217 440 l 1054 294 l 1174 201 l 878 -7 l 785 117 m 465 825 q 486 777 467 801 q 526 743 506 753 q 551 762 539 751 q 574 785 564 772 q 590 813 585 799 q 594 843 596 828 q 574 886 593 867 q 529 903 554 906 q 481 878 499 900 q 465 825 463 856 m 406 432 q 364 394 383 415 q 347 342 344 374 q 381 281 350 299 q 453 267 413 263 q 508 280 485 269 q 557 304 531 290 l 406 432 z "},"'":{"ha":354,"x_min":75,"x_max":299,"o":"m 299 1281 l 133 1068 l 75 1088 l 192 1368 l 299 1281 z "},"(":{"ha":561,"x_min":114,"x_max":506,"o":"m 494 1207 q 344 924 394 1054 q 272 699 293 793 q 250 551 251 604 q 249 497 249 497 q 256 447 249 497 q 288 315 263 396 q 365 137 314 235 q 506 -56 417 39 l 438 -104 q 287 59 347 -26 q 192 220 226 144 q 140 360 158 296 q 118 460 122 425 q 114 497 114 494 q 116 557 114 497 q 145 721 118 617 q 237 965 172 825 q 425 1265 301 1104 l 494 1207 z "},")":{"ha":536,"x_min":54,"x_max":446,"o":"m 65 -46 q 216 238 165 108 q 288 463 267 368 q 310 610 308 557 q 311 664 311 664 q 304 715 311 664 q 272 846 297 765 q 194 1024 246 926 q 54 1217 143 1122 l 122 1265 q 273 1102 213 1188 q 367 941 333 1017 q 419 801 401 865 q 442 701 438 736 q 446 664 446 667 q 444 604 446 664 q 415 441 442 544 q 323 197 388 338 q 135 -104 258 57 l 65 -46 z "},"+":{"ha":1072,"x_min":71,"x_max":990,"o":"m 990 663 l 964 374 l 642 371 l 626 107 l 364 81 l 367 369 l 71 368 l 97 631 l 368 640 l 371 974 l 679 1018 l 658 650 l 990 663 z "},",":{"ha":329,"x_min":40,"x_max":264,"o":"m 264 74 l 99 -140 l 40 -121 l 157 161 l 264 74 z "},"-":{"ha":633,"x_min":92,"x_max":544,"o":"m 104 560 l 544 579 l 531 393 l 92 400 l 104 560 z "},".":{"ha":304,"x_min":56,"x_max":211,"o":"m 56 43 l 65 161 l 211 153 l 183 7 l 56 43 z "},"/":{"ha":717,"x_min":32,"x_max":693,"o":"m 567 1165 l 693 1132 l 136 -7 l 32 39 l 567 1165 z "},":":{"ha":247,"x_min":10,"x_max":235,"o":"m 10 43 l 18 161 l 164 153 l 136 7 l 10 43 m 64 521 l 74 651 l 235 642 l 204 481 l 64 521 z "},";":{"ha":290,"x_min":-17,"x_max":272,"o":"m 207 74 l 42 -140 l -17 -121 l 100 161 l 207 74 m 118 269 l 126 388 l 272 379 l 246 233 l 118 269 z "},"=":{"ha":963,"x_min":4,"x_max":956,"o":"m 31 296 l 924 328 l 897 39 l 4 33 l 31 296 m 63 722 l 956 754 l 929 467 l 38 460 l 63 722 z "},"?":{"ha":1007,"x_min":1,"x_max":1001,"o":"m 497 -36 q 413 -53 454 -51 q 336 -44 371 -54 q 276 -14 301 -35 q 240 36 250 7 q 238 97 231 65 q 267 158 246 129 q 323 211 289 188 q 400 250 357 235 q 485 267 443 265 q 561 258 526 268 q 621 228 596 249 q 657 178 646 207 q 659 117 667 149 q 630 56 651 85 q 574 2 608 26 q 497 -36 540 -22 m 1 1021 q 262 1224 142 1154 q 478 1315 382 1293 q 653 1324 575 1336 q 786 1280 731 1311 q 879 1213 842 1249 q 934 1151 917 1176 q 953 1124 951 1125 q 995 961 1001 1038 q 947 817 989 885 q 835 689 904 749 q 686 575 765 629 q 528 473 607 521 q 389 381 450 425 q 294 297 328 338 q 272 219 261 257 l 44 396 q 53 471 32 431 q 117 554 75 511 q 215 641 158 597 q 333 728 272 685 q 450 810 393 771 q 549 883 507 850 q 613 943 592 917 q 622 985 633 969 q 586 999 611 1000 q 527 985 561 997 q 453 951 493 972 q 375 905 414 931 q 300 851 336 879 q 238 800 264 824 l 1 1021 z "},"@":{"ha":1086,"x_min":4,"x_max":1079,"o":"m 796 468 q 790 438 793 456 q 786 406 786 421 q 792 382 786 392 q 814 374 797 372 q 856 397 833 375 q 899 455 879 419 q 933 535 919 490 q 950 626 947 579 q 926 788 954 718 q 846 903 899 857 q 720 972 793 949 q 563 996 647 996 q 394 965 469 996 q 264 876 318 933 q 181 740 210 819 q 151 565 151 661 q 184 385 151 465 q 275 251 217 306 q 413 167 333 196 q 588 138 493 138 q 749 150 681 138 q 853 185 817 163 l 831 46 q 769 14 792 25 q 724 -2 747 3 q 669 -8 701 -7 q 576 -10 636 -10 q 353 33 457 -10 q 171 153 249 76 q 49 335 93 231 q 4 565 4 440 q 48 794 4 689 q 168 978 92 900 q 347 1099 244 1056 q 568 1143 450 1143 q 753 1113 665 1143 q 914 1015 840 1082 q 1034 865 989 949 q 1079 676 1079 781 q 1056 506 1079 585 q 988 368 1032 426 q 874 267 935 297 q 761 240 814 238 q 703 265 729 242 q 669 324 678 289 q 594 266 640 292 q 481 240 547 240 q 387 262 432 240 q 307 319 342 283 q 252 405 272 356 q 232 510 232 454 q 253 640 232 576 q 314 752 275 703 q 408 831 353 801 q 533 860 464 860 q 635 844 590 860 q 713 781 679 828 l 724 828 l 869 828 l 796 468 m 517 396 q 575 410 550 396 q 617 449 600 425 q 642 500 633 472 q 654 556 651 528 q 633 658 663 619 q 549 697 603 697 q 490 683 517 697 q 444 644 464 668 q 415 590 425 619 q 404 531 404 560 q 412 480 404 504 q 433 437 419 456 q 468 407 447 418 q 517 396 489 396 z "},"A":{"ha":1181,"x_min":-69,"x_max":1250,"o":"m 549 1213 l 1250 146 l 814 -19 l 697 175 l 406 165 l 349 -43 l -69 93 l 549 1213 m 478 386 l 643 415 l 574 604 l 478 386 z "},"B":{"ha":957,"x_min":44,"x_max":993,"o":"m 44 1085 q 367 1135 240 1122 q 568 1147 494 1147 q 671 1140 642 1146 q 700 1133 700 1133 q 728 1120 700 1133 q 793 1081 757 1107 q 862 1016 829 1056 q 902 924 894 976 q 881 807 910 872 q 768 663 853 742 q 934 531 885 601 q 988 393 983 461 q 967 263 993 325 q 908 153 942 200 q 845 77 874 106 q 817 49 817 49 q 798 37 815 47 q 730 12 781 26 q 594 -12 679 -3 q 375 -22 510 -22 q 54 0 240 -21 l 44 1085 m 544 774 q 545 790 544 774 q 535 820 546 806 q 497 840 525 835 q 414 822 469 844 l 408 676 q 478 684 451 669 q 520 719 506 699 q 540 756 535 739 q 544 774 544 774 m 618 382 q 616 397 618 383 q 603 430 614 411 q 569 460 593 449 q 503 467 546 471 q 394 431 461 463 l 413 285 q 531 292 489 278 q 592 326 574 306 q 615 364 611 346 q 618 382 618 382 z "},"C":{"ha":1039,"x_min":-29,"x_max":1049,"o":"m 997 936 l 754 638 q 623 739 679 717 q 526 749 567 761 q 457 701 485 738 q 413 626 429 664 q 389 557 396 588 q 382 526 382 526 q 388 490 382 524 q 417 416 394 457 q 483 356 440 375 q 598 361 525 336 q 778 485 671 386 l 1049 196 q 976 114 1028 156 q 854 38 925 72 q 699 -20 783 3 q 526 -47 614 -43 q 352 -28 438 -50 q 194 50 267 -6 q 40 228 90 131 q -19 428 -10 325 q -3 633 -29 531 q 69 826 22 736 q 178 989 115 917 q 307 1104 242 1061 q 335 1119 307 1104 q 411 1149 363 1135 q 526 1170 460 1164 q 669 1158 592 1176 q 830 1088 746 1139 q 997 936 914 1036 z "},"D":{"ha":1000,"x_min":58,"x_max":1047,"o":"m 58 1086 q 430 1149 310 1135 q 550 1164 550 1164 q 757 1155 667 1182 q 910 1068 847 1128 q 1006 922 972 1008 q 1043 738 1039 836 q 1022 534 1047 639 q 938 331 996 429 q 791 149 881 233 q 579 8 701 65 q 555 1 579 8 q 473 -13 531 -7 q 319 -18 415 -19 q 81 1 224 -17 l 58 1086 m 417 317 q 545 372 496 335 q 619 448 594 408 q 655 526 644 488 q 665 588 665 565 q 665 613 665 611 q 661 640 665 615 q 643 697 657 664 q 604 752 629 731 q 536 769 579 774 q 431 715 493 765 l 417 317 z "},"E":{"ha":822,"x_min":49,"x_max":815,"o":"m 49 1075 l 815 1132 l 772 781 l 424 765 l 422 699 l 675 717 l 646 474 l 414 456 l 411 379 l 808 417 l 801 33 l 58 -7 l 49 1075 z "},"F":{"ha":758,"x_min":51,"x_max":819,"o":"m 51 1076 l 819 1132 l 776 771 l 426 757 l 411 649 l 703 667 l 722 375 l 429 357 l 415 1 l 61 -7 l 51 1076 z "},"G":{"ha":1132,"x_min":-14,"x_max":1157,"o":"m 815 689 q 753 758 796 736 q 658 779 711 779 q 551 757 607 779 q 450 694 496 735 q 374 596 404 654 q 344 464 344 538 q 366 355 343 396 q 424 296 389 314 q 503 280 460 278 q 588 301 546 282 q 663 351 629 319 q 714 422 697 382 l 517 385 l 539 608 l 1144 685 q 1137 512 1157 597 q 1081 356 1117 426 q 1007 228 1046 285 q 942 143 968 172 q 914 111 917 114 q 792 24 864 61 q 639 -33 721 -14 q 469 -51 557 -53 q 303 -20 382 -49 q 156 67 224 8 q 47 218 89 125 q -7 426 0 322 q 10 626 -14 529 q 85 808 33 722 q 210 963 138 894 q 374 1081 283 1032 q 564 1150 464 1129 q 594 1153 567 1150 q 672 1154 621 1157 q 788 1134 724 1151 q 926 1076 851 1117 q 1075 963 1001 1035 l 815 689 z "},"H":{"ha":1001,"x_min":18,"x_max":993,"o":"m 18 1093 l 424 1132 l 375 622 l 581 638 l 597 1122 l 993 1142 l 881 69 l 558 31 l 576 336 l 431 315 l 417 -4 l 71 -11 l 18 1093 z "},"I":{"ha":515,"x_min":53,"x_max":475,"o":"m 475 1142 l 418 18 l 53 -24 l 67 1093 l 475 1142 z "},"J":{"ha":807,"x_min":-18,"x_max":761,"o":"m 744 1147 q 756 772 753 925 q 760 527 760 618 q 759 387 761 436 q 756 323 757 338 q 754 308 754 308 q 726 228 746 274 q 672 136 706 182 q 589 50 638 90 q 475 -12 540 10 q 328 -33 410 -35 q 146 6 246 -32 q 117 22 146 6 q 56 80 88 38 q 3 196 24 122 q -3 385 -18 269 l 303 482 q 290 367 289 410 q 298 306 290 325 q 317 283 306 288 q 335 282 328 279 q 344 285 343 285 q 358 297 346 286 q 383 338 371 308 q 393 413 396 367 l 347 1078 l 744 1147 z "},"K":{"ha":883,"x_min":43,"x_max":942,"o":"m 942 879 l 554 519 l 896 232 l 701 -60 l 432 194 l 429 18 l 65 -24 l 43 1093 l 450 1142 l 446 890 l 669 1200 l 942 879 z "},"L":{"ha":778,"x_min":56,"x_max":794,"o":"m 56 1086 l 474 1144 l 438 363 l 778 433 l 794 43 l 65 -31 l 56 1086 z "},"M":{"ha":1226,"x_min":-60,"x_max":1301,"o":"m 293 1201 l 633 772 l 961 1111 l 1301 175 l 967 -99 l 815 353 l 626 22 l 399 372 l 264 -39 l -60 171 l 293 1201 z "},"N":{"ha":1058,"x_min":53,"x_max":1028,"o":"m 71 1132 l 601 692 l 614 1151 l 1028 1124 l 964 64 l 432 329 l 451 1 l 53 -24 l 71 1132 z "},"O":{"ha":1061,"x_min":-43,"x_max":1115,"o":"m 888 114 q 766 26 838 64 q 613 -31 694 -11 q 444 -49 531 -50 q 277 -19 357 -47 q 131 68 197 10 q 22 219 64 126 q -34 426 -25 324 q -21 624 -43 529 q 51 804 1 719 q 172 958 101 889 q 331 1076 243 1026 q 519 1153 419 1126 q 697 1167 614 1176 q 846 1128 779 1158 q 959 1053 913 1097 q 1029 965 1006 1010 q 1094 777 1072 882 q 1103 560 1115 672 q 1040 333 1092 447 q 888 114 989 218 m 703 706 q 644 769 682 750 q 561 786 606 789 q 471 760 517 783 q 388 697 425 738 q 326 597 350 656 q 301 468 301 539 q 320 360 300 401 q 372 298 340 318 q 443 276 403 278 q 523 288 483 274 q 597 328 563 301 q 656 392 632 356 q 706 492 690 446 q 726 578 722 539 q 722 649 729 617 q 703 706 715 681 z "},"P":{"ha":889,"x_min":56,"x_max":972,"o":"m 564 1140 q 762 1124 681 1153 q 891 1040 843 1096 q 956 908 939 985 q 958 747 972 831 q 903 577 944 663 q 792 419 861 492 q 630 292 724 346 q 419 217 536 239 l 414 -33 l 78 1 l 56 1086 q 442 1128 319 1117 q 564 1140 564 1140 m 586 708 q 588 724 586 710 q 583 757 589 738 q 560 790 578 776 q 502 802 542 803 q 396 775 463 801 l 382 553 q 469 585 432 564 q 531 629 506 606 q 569 674 556 653 q 586 708 583 696 z "},"Q":{"ha":1075,"x_min":-53,"x_max":1108,"o":"m 1025 965 q 1087 792 1065 888 q 1102 592 1108 696 q 1057 382 1096 489 q 938 175 1018 275 l 1001 113 l 796 -92 l 724 7 q 533 -44 636 -32 q 333 -35 431 -57 q 151 48 235 -14 q 17 219 67 110 q -40 527 -53 376 q 47 804 -26 678 q 244 1022 121 931 q 515 1153 367 1114 q 692 1167 610 1176 q 842 1128 775 1158 q 955 1053 908 1097 q 1025 965 1001 1010 m 297 468 q 317 360 297 401 q 367 297 336 318 q 438 275 399 276 q 518 288 478 274 l 486 331 l 603 501 l 675 431 q 711 517 700 476 q 723 592 722 557 q 717 654 724 626 q 699 706 710 682 q 640 769 678 750 q 557 786 601 789 q 467 760 513 783 q 383 697 421 738 q 322 597 346 656 q 297 468 297 539 z "},"R":{"ha":931,"x_min":46,"x_max":961,"o":"m 961 199 l 746 -44 l 408 204 l 404 -33 l 68 1 l 46 1086 q 432 1128 310 1117 q 554 1140 554 1140 q 772 1121 685 1154 q 903 1024 858 1088 q 955 877 949 961 q 931 705 961 793 q 834 533 900 617 q 671 389 768 450 l 961 199 m 388 775 l 374 553 q 460 585 424 564 q 522 629 497 606 q 560 674 547 653 q 576 708 574 696 q 578 724 576 710 q 574 757 579 738 q 551 790 569 776 q 493 802 532 803 q 388 775 454 801 z "},"S":{"ha":821,"x_min":-32,"x_max":849,"o":"m 586 697 q 674 653 629 678 q 756 592 719 628 q 817 505 793 556 q 844 385 842 454 q 813 210 849 286 q 710 83 776 135 q 553 2 644 31 q 356 -31 461 -26 q 256 -26 307 -32 q 154 -7 204 -19 q 57 23 104 6 q -32 60 10 40 l 74 357 q 124 335 94 349 q 186 311 153 322 q 256 292 219 300 q 326 285 292 283 q 413 303 378 288 q 447 354 449 318 q 423 390 446 378 q 368 415 400 403 q 313 431 347 421 q 240 457 279 440 q 162 497 201 474 q 90 554 122 521 q 35 631 57 588 q 13 732 14 675 q 46 905 10 829 q 144 1034 82 981 q 290 1116 207 1088 q 468 1149 374 1144 q 642 1140 556 1153 q 803 1096 728 1126 l 721 775 q 619 815 665 799 q 513 839 574 831 q 464 842 494 842 q 406 835 435 842 q 357 815 378 829 q 335 776 336 801 q 345 759 335 765 q 370 749 356 753 q 400 744 385 746 q 425 740 415 742 q 488 726 465 732 q 511 721 511 721 q 586 697 550 713 z "},"T":{"ha":724,"x_min":-4,"x_max":756,"o":"m 719 826 l 553 807 l 553 25 l 158 -24 l 179 769 l -4 751 l 6 1093 l 756 1157 l 719 826 z "},"U":{"ha":894,"x_min":7,"x_max":878,"o":"m 858 1097 q 870 756 867 885 q 875 557 874 626 q 876 465 876 488 q 876 443 876 443 q 864 281 878 358 q 813 140 850 203 q 713 31 776 76 q 556 -32 650 -14 q 307 -37 411 -60 q 135 46 203 -15 q 38 201 68 107 q 10 407 7 294 q 10 421 10 408 q 11 479 10 435 q 14 604 13 524 q 19 819 15 685 q 29 1147 24 954 l 426 1078 l 390 425 q 391 361 385 389 q 404 321 397 333 q 413 307 411 308 q 444 289 426 292 q 485 322 463 286 q 493 340 486 324 q 507 396 500 356 q 511 494 514 436 l 482 1028 l 858 1097 z "},"V":{"ha":1039,"x_min":-67,"x_max":1117,"o":"m 329 1161 l 533 672 l 771 1150 l 1117 950 l 506 -99 l -67 928 l 329 1161 z "},"W":{"ha":1368,"x_min":-58,"x_max":1414,"o":"m -58 1013 l 319 1176 l 467 722 l 718 1108 l 928 744 l 1094 1242 l 1414 1013 l 1069 -8 l 724 346 l 367 -104 l -58 1013 z "},"X":{"ha":1119,"x_min":-14,"x_max":1143,"o":"m 296 1163 l 568 883 l 825 1163 l 1136 929 l 807 588 l 1143 244 l 878 -40 l 563 356 l 310 -53 l -7 213 l 310 568 l -14 929 l 296 1163 z "},"Y":{"ha":974,"x_min":-83,"x_max":1068,"o":"m 215 1156 l 461 769 l 728 1156 l 1068 922 l 644 375 l 640 -25 l 267 25 l 267 433 l -83 922 l 215 1156 z "},"Z":{"ha":1135,"x_min":-22,"x_max":1139,"o":"m 46 -43 l 383 775 l -22 749 l 56 1113 l 1088 1146 l 617 364 l 1139 428 l 1069 24 l 46 -43 z "},"a":{"ha":838,"x_min":-12,"x_max":781,"o":"m 485 94 l 482 94 q 387 21 444 42 q 263 0 329 0 q 157 20 207 0 q 69 78 107 40 q 10 168 32 115 q -12 286 -12 221 q 10 391 -12 343 q 70 474 32 439 q 160 530 108 510 q 274 550 213 550 q 381 531 338 550 q 456 489 425 513 l 456 531 q 414 615 456 594 q 306 636 372 636 q 192 624 244 636 q 85 594 139 611 l 139 815 q 278 842 206 835 q 425 850 350 850 q 558 834 493 850 q 673 782 624 818 q 751 689 722 746 q 779 549 781 632 l 764 24 l 485 0 l 485 94 m 308 351 q 231 319 261 344 q 204 261 200 293 q 244 213 210 229 q 332 206 278 197 q 413 240 386 214 q 433 297 439 267 q 398 342 429 324 q 308 351 367 361 z "},"b":{"ha":889,"x_min":44,"x_max":922,"o":"m 540 843 q 693 807 624 843 q 814 712 763 771 q 894 578 865 653 q 922 425 922 503 q 887 240 922 321 q 793 105 851 160 q 658 22 735 50 q 497 -7 581 -7 q 377 15 433 -7 q 272 63 321 38 l 272 3 l 53 3 l 44 1122 l 365 1147 l 353 786 q 436 826 396 810 q 540 843 476 843 m 515 283 q 572 310 549 293 q 610 350 596 328 q 629 397 625 372 q 626 447 633 422 q 603 491 619 472 q 562 522 586 510 q 508 535 538 533 q 444 528 478 538 q 387 500 411 518 q 348 460 363 482 q 329 413 333 438 q 332 363 325 388 q 356 319 339 338 q 397 289 372 300 q 451 276 421 278 q 515 283 482 274 z "},"c":{"ha":733,"x_min":-10,"x_max":753,"o":"m 753 99 q 678 48 718 68 q 597 15 639 28 q 513 -2 556 3 q 429 -7 469 -7 q 255 25 335 -7 q 116 113 175 57 q 24 245 57 169 q -10 408 -10 321 q 25 591 -10 510 q 122 728 60 672 q 268 815 183 785 q 451 844 353 844 q 623 813 550 844 q 746 747 696 781 l 563 507 q 517 532 543 522 q 465 546 492 542 q 415 549 439 550 q 375 539 390 547 q 330 506 349 525 q 301 465 311 488 q 291 417 290 443 q 306 365 292 392 q 385 297 333 310 q 493 313 436 285 l 564 349 l 753 99 l 753 99 z "},"d":{"ha":922,"x_min":-12,"x_max":842,"o":"m 836 10 l 564 -8 l 564 71 l 561 71 q 470 6 528 26 q 354 -14 413 -14 q 217 15 283 -14 q 100 97 151 43 q 18 228 49 150 q -12 404 -12 306 q 13 572 -12 493 q 88 709 39 650 q 208 802 136 768 q 371 836 279 836 q 460 824 417 836 q 535 785 503 813 l 522 1115 l 842 1140 l 836 10 m 451 285 q 503 315 482 296 q 535 356 524 333 q 549 404 547 379 q 542 453 550 429 q 516 493 533 475 q 475 522 499 511 q 423 533 451 532 q 364 524 394 535 q 311 493 332 513 q 278 451 290 474 q 265 402 267 428 q 272 354 264 376 q 298 313 281 331 q 339 285 315 296 q 391 274 363 275 q 451 285 419 274 z "},"e":{"ha":794,"x_min":-15,"x_max":796,"o":"m 792 103 q 618 15 707 42 q 414 -12 529 -12 q 241 20 319 -12 q 106 108 163 53 q 17 238 49 164 q -15 396 -15 313 q 18 582 -15 500 q 108 721 51 664 q 241 808 165 778 q 403 838 317 838 q 644 767 542 838 q 796 578 746 696 l 381 265 q 421 254 396 257 q 467 251 446 251 q 574 274 531 251 q 654 329 618 297 l 792 103 m 494 558 q 452 590 475 582 q 400 599 429 599 q 349 587 372 599 q 310 555 326 575 q 284 510 293 535 q 275 458 275 485 q 278 423 275 433 q 288 401 282 413 l 494 558 z "},"f":{"ha":578,"x_min":17,"x_max":556,"o":"m 113 561 l 17 561 l 61 800 l 113 800 q 132 936 113 875 q 191 1040 151 997 q 292 1106 231 1082 q 438 1129 353 1129 q 480 1126 461 1129 q 519 1119 499 1122 l 556 889 l 508 889 q 438 865 463 889 q 414 800 414 842 l 533 800 l 533 561 l 414 561 l 422 11 l 111 -14 l 113 561 z "},"g":{"ha":822,"x_min":-12,"x_max":785,"o":"m 133 22 q 231 -6 182 6 q 333 -17 281 -17 q 378 -14 356 -17 q 418 -2 400 -11 q 447 23 436 7 q 458 65 458 39 q 445 109 458 92 q 409 137 432 126 q 357 151 386 147 q 297 154 328 154 q 224 144 261 154 q 154 117 186 133 l 181 200 q 38 322 89 244 q -12 508 -12 399 q 9 626 -12 565 q 76 736 31 686 q 193 818 122 786 q 363 850 264 850 q 450 843 413 850 q 521 825 488 836 l 544 971 l 767 875 l 694 733 q 762 634 739 690 q 785 514 785 578 q 749 365 785 426 q 644 257 714 303 q 781 26 781 181 q 749 -105 781 -47 q 658 -201 717 -162 q 516 -260 599 -240 q 332 -281 433 -281 q 129 -260 210 -281 q -1 -222 49 -239 l 133 22 m 401 413 q 472 451 449 422 q 489 517 496 481 q 447 569 481 553 q 367 576 413 586 q 296 536 319 565 q 279 472 272 507 q 320 419 286 436 q 401 413 354 401 z "},"h":{"ha":815,"x_min":43,"x_max":772,"o":"m 344 742 l 347 742 q 428 808 382 788 q 531 828 474 828 q 634 807 589 828 q 710 749 679 786 q 756 660 740 711 q 771 551 772 610 l 763 14 l 469 -11 l 469 496 q 453 536 469 519 q 408 553 436 553 q 363 537 382 553 q 344 493 344 521 l 344 -12 l 53 13 l 43 1107 l 354 1132 l 344 742 z "},"i":{"ha":424,"x_min":53,"x_max":372,"o":"m 56 788 l 365 813 l 350 11 l 56 -14 l 56 788 m 54 1139 l 372 1153 l 356 908 l 53 886 l 54 1139 z "},"j":{"ha":544,"x_min":6,"x_max":481,"o":"m 465 78 q 443 -73 465 -8 q 379 -181 421 -137 q 278 -246 338 -224 q 147 -268 219 -268 l 82 -268 l 6 -14 l 38 -14 q 132 13 100 -14 q 164 103 164 39 l 164 783 l 465 808 l 465 78 m 464 906 l 161 882 l 163 1136 l 481 1150 l 464 906 z "},"k":{"ha":803,"x_min":40,"x_max":797,"o":"m 40 1104 l 356 1129 l 328 543 l 331 543 l 463 825 l 769 800 l 589 450 l 797 129 l 508 -14 l 328 335 l 325 335 l 336 11 l 47 -14 l 40 1104 z "},"l":{"ha":415,"x_min":49,"x_max":363,"o":"m 49 1104 l 363 1129 l 350 11 l 58 -14 l 49 1104 z "},"m":{"ha":1238,"x_min":39,"x_max":1201,"o":"m 908 494 q 889 538 908 521 q 838 554 869 554 q 785 533 804 554 q 765 490 765 513 l 774 15 l 472 -10 l 478 492 q 458 537 479 519 q 404 554 438 554 q 355 538 378 554 q 333 490 332 521 l 347 -11 l 56 14 l 39 804 l 322 829 l 322 701 l 325 701 q 426 795 369 761 q 561 829 482 829 q 670 809 626 829 q 750 746 714 789 q 832 806 786 783 q 933 829 878 829 q 1044 808 996 829 q 1124 747 1092 786 q 1174 656 1157 708 q 1193 544 1192 604 l 1201 15 l 900 -10 l 908 494 z "},"n":{"ha":821,"x_min":39,"x_max":772,"o":"m 328 714 l 333 714 q 427 799 379 776 q 532 821 475 821 q 635 800 590 821 q 710 742 679 779 q 756 654 740 704 q 772 546 772 604 l 772 8 l 472 -17 l 476 489 q 458 531 478 514 q 410 547 438 547 q 362 531 383 547 q 340 488 340 515 l 346 -14 l 50 7 l 39 797 l 328 821 l 328 714 z "},"o":{"ha":857,"x_min":-24,"x_max":879,"o":"m 865 478 q 856 299 879 382 q 783 153 833 217 q 656 49 732 90 q 488 -4 581 8 q 310 1 394 -17 q 158 66 225 19 q 47 185 92 113 q -10 354 3 258 q -1 533 -24 450 q 73 679 22 615 q 199 784 124 743 q 368 838 275 825 q 545 832 461 850 q 696 767 629 814 q 807 647 763 721 q 865 478 851 574 m 282 360 q 357 289 306 306 q 474 300 408 272 q 562 376 538 328 q 564 478 586 424 q 489 548 540 531 q 374 538 438 565 q 284 461 308 510 q 282 360 260 413 z "},"p":{"ha":888,"x_min":44,"x_max":908,"o":"m 332 831 l 332 736 q 424 808 376 785 q 539 831 472 831 q 691 794 622 831 q 808 697 760 757 q 882 562 856 638 q 908 408 908 486 q 881 248 908 325 q 802 111 853 171 q 681 15 751 51 q 525 -21 610 -21 q 433 -8 482 -21 q 344 42 383 4 l 353 -235 l 60 -260 l 44 806 l 332 831 m 521 293 q 605 375 583 322 q 604 474 626 428 q 528 537 582 521 q 413 524 475 553 q 326 441 349 493 q 328 342 304 389 q 358 302 339 318 q 403 279 378 286 q 459 275 429 272 q 521 293 489 278 z "},"q":{"ha":885,"x_min":-25,"x_max":840,"o":"m 531 -229 l 539 47 q 451 -1 500 11 q 358 -14 401 -14 q 202 22 272 -14 q 81 117 132 58 q 3 253 31 176 q -25 414 -25 331 q 1 567 -25 492 q 76 703 28 643 q 192 799 124 763 q 344 836 261 836 q 459 813 411 836 q 551 742 507 790 l 551 836 l 840 811 l 825 -254 l 531 -229 m 557 479 q 526 519 546 503 q 480 542 506 535 q 424 546 454 549 q 363 528 393 543 q 278 447 300 499 q 279 347 257 394 q 355 285 301 301 q 471 299 408 269 q 557 381 535 329 q 557 479 579 433 z "},"r":{"ha":581,"x_min":38,"x_max":601,"o":"m 319 831 l 319 676 l 322 676 q 531 831 358 831 q 601 826 568 831 l 529 531 q 508 532 519 532 q 481 532 499 532 q 380 494 422 532 q 338 374 338 456 l 338 17 l 46 -8 l 38 806 l 319 831 z "},"s":{"ha":619,"x_min":13,"x_max":633,"o":"m 19 275 q 95 257 57 264 q 178 250 133 250 q 219 251 197 250 q 258 255 240 251 q 287 267 275 258 q 299 292 299 275 q 277 323 299 313 q 224 343 256 333 q 156 366 193 353 q 87 405 118 379 q 34 474 56 431 q 13 586 13 517 q 31 676 13 632 q 89 757 49 721 q 193 815 129 793 q 347 838 257 838 q 417 835 382 838 q 483 827 451 832 q 540 817 514 822 q 585 808 567 813 l 585 564 q 517 578 550 572 q 444 583 483 583 q 418 583 436 583 q 382 578 400 582 q 350 567 364 575 q 336 544 336 558 q 358 511 336 522 q 413 490 381 500 q 485 467 446 481 q 556 427 524 453 q 611 358 589 401 q 633 246 633 315 q 601 121 633 171 q 515 41 568 71 q 392 -1 461 11 q 247 -14 322 -14 q 133 -7 189 -14 q 19 15 76 0 l 19 275 l 19 275 z "},"t":{"ha":515,"x_min":13,"x_max":506,"o":"m 457 -10 q 415 -13 435 -12 q 371 -14 394 -14 q 163 47 238 -14 q 89 243 89 107 l 89 572 l 13 571 l 21 811 l 86 811 l 86 903 l 388 1039 l 388 811 l 500 828 l 485 572 l 390 572 l 390 329 q 402 274 390 288 q 456 260 414 260 q 485 261 474 260 q 506 265 496 263 l 457 -10 l 457 -10 z "},"u":{"ha":821,"x_min":42,"x_max":779,"o":"m 503 122 l 500 122 q 413 14 472 46 q 275 -18 354 -18 q 106 44 171 -18 q 42 224 42 106 l 42 807 l 351 832 l 343 318 q 358 270 342 285 q 407 256 374 256 q 452 269 435 256 q 468 317 469 283 l 460 807 l 779 832 l 758 6 l 503 -6 l 503 122 z "},"v":{"ha":713,"x_min":-31,"x_max":743,"o":"m 268 838 l 347 289 l 350 289 l 442 838 l 743 814 l 551 13 l 151 -11 l -31 814 l 268 838 z "},"w":{"ha":1094,"x_min":-36,"x_max":1126,"o":"m 360 454 l 439 814 l 657 831 l 739 450 l 742 450 l 824 843 l 1126 818 l 913 17 l 625 -6 l 547 382 l 544 382 l 465 17 l 181 -7 l -36 818 l 275 843 l 357 454 l 360 454 z "},"x":{"ha":774,"x_min":-26,"x_max":797,"o":"m 382 597 l 385 597 l 449 831 l 769 806 l 604 424 l 797 17 l 464 -7 l 385 244 l 382 244 l 301 -7 l -26 17 l 158 424 l -14 806 l 308 831 l 382 597 z "},"y":{"ha":697,"x_min":-21,"x_max":732,"o":"m 378 511 l 446 817 l 732 792 l 435 -256 l 121 -231 l 240 96 l -21 779 l 282 817 l 375 511 l 378 511 z "},"z":{"ha":675,"x_min":-21,"x_max":668,"o":"m 75 806 l 654 806 l 421 293 l 668 293 l 608 4 l -21 4 l 215 517 l 17 517 l 75 806 z "},"Ç":{"ha":1004,"x_min":-35,"x_max":1042,"o":"m 1042 199 q 977 124 1022 163 q 869 51 932 85 q 731 -7 807 18 q 574 -40 654 -32 l 499 -224 l 289 -136 l 371 -31 q 276 1 322 -19 q 189 53 231 21 q 34 231 85 133 q -26 431 -17 328 q -10 636 -35 533 q 63 829 15 739 q 173 992 110 919 q 301 1107 236 1064 q 329 1122 301 1107 q 406 1152 357 1138 q 520 1173 454 1167 q 663 1160 586 1179 q 823 1090 739 1142 q 990 939 907 1039 l 749 640 q 617 742 674 719 q 519 752 561 764 q 450 703 478 740 q 406 628 422 667 q 382 560 389 590 q 375 529 375 529 q 382 493 375 526 q 412 419 389 460 q 477 358 435 378 q 592 364 519 339 q 772 488 665 389 l 1042 199 z "},"É":{"ha":831,"x_min":44,"x_max":811,"o":"m 44 1075 l 811 1131 l 768 779 l 418 765 l 418 697 l 669 717 l 642 474 l 408 454 l 407 378 l 804 415 l 796 32 l 54 -8 l 44 1075 m 510 1275 l 344 1063 l 286 1082 l 403 1363 l 510 1275 z "},"Ü":{"ha":943,"x_min":33,"x_max":904,"o":"m 885 1124 q 895 838 892 956 q 901 648 899 719 q 903 535 903 576 q 903 482 903 494 q 903 468 903 469 q 890 307 904 385 q 840 166 876 229 q 740 58 803 103 q 583 -6 678 13 q 335 -12 439 -35 q 163 72 231 11 q 65 227 96 133 q 36 433 33 321 q 37 457 36 433 q 40 558 38 481 q 45 781 42 635 q 56 1172 49 928 l 454 1104 l 417 451 q 417 388 411 415 q 431 347 424 360 q 439 333 438 335 q 472 315 453 318 q 513 349 490 313 q 521 366 514 350 q 534 422 528 382 q 538 521 540 463 l 508 1054 l 885 1124 m 225 1289 l 454 1306 l 478 1194 q 418 1189 456 1192 q 345 1184 381 1186 q 283 1182 310 1182 q 258 1185 258 1182 q 257 1193 258 1186 q 249 1224 256 1200 q 225 1289 242 1249 m 772 1246 q 601 1224 664 1233 q 539 1214 539 1214 l 543 1324 l 760 1371 l 772 1246 z "},"à":{"ha":815,"x_min":-12,"x_max":782,"o":"m 486 -18 l 764 7 l 779 531 q 753 671 782 614 q 674 764 724 728 q 558 816 624 800 q 425 832 493 832 q 278 824 351 832 q 140 797 206 817 l 86 576 q 192 606 139 593 q 306 618 244 618 q 367 614 339 618 q 415 598 394 610 q 446 565 435 586 q 457 513 457 544 l 457 471 q 382 513 426 494 q 275 532 338 532 q 162 512 214 532 q 71 456 110 492 q 10 373 32 421 q -12 268 -12 325 q 10 150 -12 203 q 69 60 32 97 q 157 2 107 22 q 263 -18 207 -18 q 388 3 331 -18 q 483 76 446 24 l 486 76 l 486 -18 m 310 333 q 399 324 368 343 q 435 279 431 306 q 413 222 439 249 q 332 188 386 196 q 244 195 278 179 q 206 243 210 211 q 231 301 200 275 q 310 333 261 326 m 400 1156 l 556 926 l 446 869 l 199 1044 l 400 1156 z "},"â":{"ha":822,"x_min":-17,"x_max":776,"o":"m 481 -10 l 760 15 l 775 539 q 747 679 776 622 q 669 772 718 736 q 554 824 619 808 q 421 840 489 840 q 274 833 346 840 q 135 806 201 825 l 81 585 q 187 614 133 601 q 301 626 240 626 q 362 622 335 626 q 409 606 389 618 q 440 574 429 594 q 451 521 451 553 l 451 479 q 377 522 421 503 q 269 540 333 540 q 156 520 208 540 q 66 465 104 500 q 6 381 28 429 q -17 276 -17 333 q 6 158 -17 211 q 65 68 28 106 q 152 10 103 31 q 257 -10 201 -10 q 383 11 325 -10 q 478 85 440 32 l 481 85 l 481 -10 m 304 342 q 394 333 363 351 q 429 288 425 314 q 408 231 435 257 q 328 196 382 204 q 240 203 274 188 q 200 251 206 219 q 226 309 196 283 q 304 342 257 335 m 418 1003 l 331 886 l 156 965 l 311 1117 l 524 1117 l 671 956 l 503 886 l 418 1003 z "},"ä":{"ha":1310,"x_min":-18,"x_max":776,"o":"m 481 -8 l 758 17 l 774 540 q 747 681 776 624 q 668 774 718 738 q 553 826 618 810 q 419 842 488 842 q 273 834 346 842 q 135 807 200 826 l 81 586 q 186 615 133 603 q 300 628 239 628 q 361 624 333 628 q 409 608 389 619 q 440 575 429 596 q 451 522 451 554 l 451 481 q 376 523 421 504 q 269 542 332 542 q 156 522 208 542 q 65 466 104 501 q 4 383 26 431 q -18 278 -18 335 q 4 160 -18 213 q 64 69 26 107 q 151 12 101 32 q 257 -8 201 -8 q 383 13 325 -8 q 478 86 440 33 l 481 86 l 481 -8 m 304 343 q 394 334 363 353 q 429 289 425 315 q 408 232 433 258 q 326 197 382 206 q 239 205 272 189 q 200 253 206 221 q 225 310 194 285 q 304 343 256 336 m 669 957 l 485 958 l 468 1092 l 654 1106 l 669 957 m 376 957 l 192 958 l 175 1092 l 361 1106 l 376 957 z "},"ç":{"ha":717,"x_min":-19,"x_max":743,"o":"m 743 82 q 605 3 681 26 q 454 -24 529 -19 l 414 -114 l 288 -81 l 331 -15 q 190 35 254 -1 q 78 126 125 72 q 6 247 32 179 q -19 390 -19 314 q 15 573 -19 492 q 112 710 50 654 q 258 797 174 767 q 442 826 343 826 q 614 794 540 826 q 738 729 688 763 l 554 490 q 509 515 535 506 q 457 528 483 525 q 406 531 431 532 q 367 521 382 529 q 322 488 340 507 q 292 447 303 469 q 283 400 282 425 q 297 349 283 375 q 376 280 325 293 q 485 294 428 267 l 556 332 l 743 82 z "},"é":{"ha":813,"x_min":-18,"x_max":794,"o":"m 610 1044 l 361 869 l 253 926 l 408 1156 l 610 1044 m 401 831 q 642 760 540 831 q 794 571 744 689 l 378 257 q 419 246 394 249 q 465 243 444 243 q 572 266 528 243 q 653 321 615 289 l 789 96 q 616 7 706 35 q 413 -21 526 -21 q 239 12 318 -21 q 103 100 160 44 q 14 230 46 156 q -18 388 -18 304 q 15 574 -18 492 q 106 713 49 656 q 239 801 163 771 q 401 831 315 831 m 285 394 l 493 551 q 451 583 474 575 q 399 592 428 592 q 347 579 371 592 q 307 547 324 567 q 281 503 290 528 q 272 451 272 478 q 276 415 272 425 q 285 394 281 406 z "},"è":{"ha":804,"x_min":-21,"x_max":792,"o":"m 451 1157 l 607 928 l 499 871 l 250 1046 l 451 1157 m 490 551 l 282 396 q 274 417 278 407 q 269 453 269 426 q 278 504 269 479 q 304 549 288 529 q 344 581 321 568 q 396 593 368 593 q 448 585 425 593 q 490 551 471 576 m 788 97 l 650 322 q 569 267 613 290 q 463 244 525 244 q 417 247 442 244 q 375 258 392 250 l 792 572 q 640 761 742 690 q 399 832 538 832 q 236 802 313 832 q 103 715 160 772 q 13 575 46 657 q -21 389 -21 493 q 11 231 -21 306 q 100 101 43 157 q 236 13 157 46 q 410 -19 315 -19 q 614 8 525 -19 q 788 97 703 36 z "},"ê":{"ha":804,"x_min":-17,"x_max":794,"o":"m 413 997 l 326 881 l 151 960 l 306 1111 l 519 1111 l 665 950 l 499 881 l 413 997 m 401 833 q 642 763 540 833 q 794 574 744 692 l 379 260 q 419 249 394 251 q 465 246 444 246 q 572 269 528 246 q 653 324 617 292 l 790 99 q 617 10 706 38 q 413 -18 528 -18 q 240 15 318 -18 q 104 103 161 47 q 15 233 47 158 q -17 390 -17 307 q 17 576 -17 494 q 107 716 50 658 q 240 803 164 774 q 401 833 315 833 m 285 397 l 493 554 q 451 586 474 578 q 399 594 428 594 q 348 582 371 594 q 308 550 325 569 q 283 506 292 531 q 274 454 274 481 q 277 418 274 428 q 285 397 281 408 z "},"ë":{"ha":811,"x_min":-17,"x_max":794,"o":"m 465 251 q 572 274 528 251 q 653 329 617 297 l 790 104 q 617 15 706 43 q 413 -12 528 -12 q 240 20 318 -12 q 104 108 161 53 q 15 238 47 164 q -17 396 -17 313 q 17 582 -17 500 q 107 722 50 664 q 240 809 164 779 q 401 839 315 839 q 642 768 540 839 q 794 579 744 697 l 379 265 q 419 254 394 257 q 465 251 444 251 m 274 460 q 277 424 274 433 q 285 403 281 414 l 493 560 q 451 592 474 583 q 399 600 428 600 q 348 588 371 600 q 308 556 325 575 q 283 511 292 536 q 274 460 274 486 m 651 956 l 467 957 l 451 1090 l 636 1104 l 651 956 m 358 956 l 174 957 l 158 1090 l 343 1104 l 358 956 z "},"î":{"ha":457,"x_min":-39,"x_max":475,"o":"m 329 1106 l 475 944 l 308 875 l 222 992 l 136 875 l -39 954 l 115 1106 l 329 1106 m 86 -11 l 365 14 l 388 815 l 86 790 l 86 -11 z "},"ï":{"ha":449,"x_min":-31,"x_max":463,"o":"m 463 944 l 279 946 l 263 1079 l 447 1093 l 463 944 m 169 944 l -14 946 l -31 1079 l 154 1093 l 169 944 m 78 -11 l 357 14 l 379 815 l 78 790 l 78 -11 z "},"ô":{"ha":846,"x_min":-29,"x_max":875,"o":"m 861 465 q 803 635 847 561 q 692 755 758 708 q 541 819 625 801 q 364 825 457 838 q 195 772 271 813 q 68 667 119 731 q -6 522 17 604 q -15 343 -29 439 q 43 174 -1 247 q 154 53 88 100 q 305 -11 221 7 q 482 -17 389 -29 q 651 37 575 -4 q 778 141 726 78 q 852 287 829 204 q 861 465 875 369 m 278 347 q 278 449 254 400 q 368 525 303 497 q 485 535 433 553 q 558 465 536 518 q 558 363 582 411 q 468 288 533 315 q 352 276 403 260 q 278 347 301 293 m 533 1111 l 681 950 l 513 881 l 428 997 l 340 881 l 165 960 l 321 1111 l 533 1111 z "},"ù":{"ha":822,"x_min":42,"x_max":779,"o":"m 503 -6 l 760 7 l 779 833 l 461 808 l 469 318 q 452 270 469 283 q 407 257 435 257 q 359 271 375 257 q 343 319 343 285 l 351 833 l 42 808 l 42 225 q 59 121 42 167 q 107 44 76 75 q 181 -2 138 14 q 275 -18 224 -18 q 413 14 354 -18 q 500 124 472 46 l 503 124 l 503 -6 m 404 1167 l 560 938 l 450 881 l 203 1056 l 404 1167 z "},"û":{"ha":804,"x_min":32,"x_max":769,"o":"m 493 -3 l 749 10 l 769 836 l 450 811 l 458 321 q 442 273 460 286 q 397 260 425 260 q 348 274 364 260 q 333 322 332 288 l 342 836 l 32 811 l 32 228 q 97 47 32 110 q 265 -15 161 -15 q 403 17 344 -15 q 490 126 463 49 l 493 126 l 493 -3 m 403 1008 l 317 892 l 142 971 l 296 1122 l 510 1122 l 656 961 l 489 892 l 403 1008 z "},"°":{"ha":367,"x_min":-19,"x_max":353,"o":"m 293 736 q 233 686 271 706 q 153 665 194 667 q 72 685 111 664 q 8 758 32 706 q -19 875 -19 817 q 3 983 -18 933 q 61 1071 24 1033 q 147 1126 99 1108 q 203 1136 176 1138 q 253 1124 231 1135 q 293 1098 276 1114 q 318 1065 310 1082 q 344 994 335 1033 q 352 912 353 956 q 338 823 351 868 q 293 736 324 778 m 214 963 q 185 990 203 988 q 149 978 167 993 q 118 935 131 964 q 108 864 106 906 q 124 809 111 825 q 153 793 138 793 q 185 807 169 793 q 210 842 201 821 q 224 914 226 885 q 214 963 222 943 z "},"≈":{"ha":833,"x_min":-3,"x_max":842,"o":"m 842 694 l 615 465 l 801 265 l 638 58 l 422 268 l 194 36 l 22 236 l 226 457 l -3 681 l 179 935 l 425 669 l 651 913 l 842 694 z "}," ":{"ha":696,"x_min":0,"x_max":0,"o":""},"À":{"ha":1132,"x_min":-99,"x_max":1221,"o":"m 519 1203 l 1221 136 l 785 -29 l 668 165 l 376 156 l 319 -53 l -99 83 l 519 1203 m 449 376 l 614 406 l 544 594 l 449 376 m 407 1354 l 524 1074 l 465 1054 l 300 1267 l 407 1354 z "},"Œ":{"ha":1453,"x_min":-36,"x_max":1454,"o":"m 1032 454 l 1031 378 l 1447 415 l 1439 33 l 740 -7 l 740 10 q 549 -44 653 -31 q 346 -35 444 -57 q 163 47 247 -14 q 28 219 78 108 q -28 426 -19 324 q -14 624 -36 529 q 58 804 8 719 q 179 958 108 889 q 339 1076 250 1026 q 526 1151 428 1126 q 642 1168 586 1167 q 749 1160 699 1169 q 842 1133 799 1151 q 921 1089 885 1114 l 1454 1132 l 1411 779 l 1042 765 l 1049 699 l 1313 717 l 1285 474 l 1032 454 m 663 392 q 713 492 697 446 q 733 576 729 538 q 729 648 736 615 q 710 706 722 681 q 651 769 689 750 q 568 786 613 789 q 478 760 524 783 q 394 695 432 736 q 333 597 357 654 q 308 468 308 539 q 327 360 307 401 q 378 298 347 318 q 450 276 410 278 q 530 288 490 274 q 604 328 569 301 q 663 392 639 356 z "},"œ":{"ha":1351,"x_min":-22,"x_max":1394,"o":"m 960 258 q 999 247 978 251 q 1051 243 1019 243 q 1163 262 1114 243 q 1253 306 1213 281 l 1378 88 q 1215 7 1301 35 q 1017 -21 1129 -21 q 856 1 933 -21 q 718 74 779 24 q 584 4 661 29 q 419 -21 507 -21 q 244 9 325 -21 q 105 94 164 39 q 12 228 46 150 q -22 404 -22 307 q 12 581 -22 501 q 105 715 46 660 q 244 801 164 771 q 419 831 325 831 q 591 807 522 831 q 719 743 660 783 q 835 802 769 774 q 989 831 901 831 q 1121 813 1061 831 q 1229 761 1181 794 q 1318 679 1278 728 q 1394 571 1358 631 l 960 258 m 300 404 q 333 310 300 344 q 419 275 365 275 q 507 310 475 275 q 539 404 539 344 q 507 497 539 463 q 419 532 475 532 q 333 497 365 532 q 300 404 300 463 m 1074 553 q 1038 580 1058 568 q 985 592 1018 592 q 885 553 922 592 q 849 461 849 514 q 863 404 849 428 l 1074 553 z "},"—":{"ha":1310,"x_min":10,"x_max":929,"o":"m 36 636 l 929 668 l 903 381 l 10 374 l 36 636 z "},"“":{"ha":596,"x_min":47,"x_max":469,"o":"m 353 1354 l 469 1074 l 411 1054 l 246 1267 l 353 1354 m 154 1354 l 271 1074 l 213 1054 l 47 1267 l 154 1354 z "},"”":{"ha":579,"x_min":111,"x_max":532,"o":"m 335 1267 l 169 1054 l 111 1074 l 228 1354 l 335 1267 m 532 1267 l 368 1054 l 310 1074 l 425 1354 l 532 1267 z "},"÷":{"ha":1110,"x_min":32,"x_max":1075,"o":"m 583 0 q 506 -15 544 -14 q 437 -8 468 -17 q 383 19 406 1 q 351 65 360 38 q 349 120 342 92 q 375 175 356 149 q 425 224 394 201 q 494 258 456 246 q 572 274 533 272 q 641 266 610 275 q 695 238 672 257 q 726 193 718 219 q 729 138 736 167 q 703 83 722 110 q 653 35 683 57 q 583 0 622 13 m 642 667 q 565 651 603 653 q 495 659 526 650 q 441 686 464 668 q 408 732 418 704 q 406 787 400 758 q 433 842 413 815 q 483 890 453 868 q 553 925 514 913 q 630 940 592 939 q 699 933 668 942 q 753 905 731 924 q 785 860 776 886 q 788 805 794 833 q 761 750 781 776 q 711 701 742 724 q 642 667 681 679 m 44 519 l 1075 564 l 1061 393 l 32 374 l 44 519 z "},"ÿ":{"ha":679,"x_min":-40,"x_max":713,"o":"m 585 947 l 400 949 l 383 1082 l 569 1096 l 585 947 m 292 947 l 107 949 l 90 1082 l 276 1096 l 292 947 m 356 525 l 263 831 l -40 793 l 221 110 l 101 -218 l 417 -243 l 713 806 l 426 831 l 358 525 l 356 525 z "},"Ÿ":{"ha":1031,"x_min":-57,"x_max":1094,"o":"m -57 922 l 293 432 l 293 24 l 667 -26 l 671 374 l 1094 922 l 754 1154 l 488 768 l 242 1154 l -57 922 m 274 1275 l 503 1292 l 526 1181 q 466 1175 503 1178 q 393 1170 429 1172 q 331 1168 357 1168 q 306 1171 306 1168 q 301 1191 306 1171 q 274 1275 297 1211 m 821 1232 q 650 1210 713 1219 q 588 1200 588 1200 l 590 1310 l 807 1357 l 821 1232 z "},"Â":{"ha":1125,"x_min":-100,"x_max":1219,"o":"m 518 1203 l 1219 136 l 782 -29 l 665 165 l 375 156 l 317 -53 l -100 83 l 518 1203 m 447 376 l 613 406 l 542 594 l 447 376 m 482 1361 l 767 1264 l 722 1175 l 508 1276 l 326 1156 l 256 1225 l 482 1361 z "},"Ê":{"ha":833,"x_min":43,"x_max":810,"o":"m 43 1067 l 810 1122 l 767 771 l 418 757 l 417 689 l 669 708 l 640 465 l 407 446 l 406 369 l 803 407 l 796 24 l 53 -17 l 43 1067 m 389 1361 l 674 1264 l 629 1175 l 415 1276 l 233 1156 l 163 1225 l 389 1361 z "},"Ë":{"ha":831,"x_min":39,"x_max":806,"o":"m 110 1257 l 339 1274 l 363 1163 q 303 1157 340 1160 q 230 1153 265 1154 q 169 1151 194 1151 q 143 1153 143 1150 q 142 1161 143 1154 q 133 1192 140 1168 q 110 1257 126 1217 m 657 1214 q 486 1192 549 1201 q 424 1182 424 1182 l 428 1292 l 644 1339 l 657 1214 m 39 1067 l 806 1122 l 763 771 l 413 757 l 413 689 l 664 708 l 636 465 l 403 446 l 401 369 l 799 407 l 790 24 l 49 -17 l 39 1067 z "},"È":{"ha":838,"x_min":46,"x_max":813,"o":"m 46 1067 l 813 1122 l 769 771 l 421 757 l 419 689 l 672 708 l 643 465 l 410 446 l 408 369 l 806 407 l 799 24 l 56 -17 l 46 1067 m 394 1354 l 511 1074 l 453 1054 l 288 1267 l 394 1354 z "},"Î":{"ha":540,"x_min":15,"x_max":526,"o":"m 242 1303 l 526 1206 l 482 1115 l 268 1218 l 86 1096 l 15 1167 l 242 1303 m 485 1076 l 428 22 l 64 -18 l 78 1028 l 485 1076 z "},"Ï":{"ha":567,"x_min":7,"x_max":554,"o":"m 92 1022 l 78 -24 l 442 17 l 499 1071 l 92 1022 m 7 1188 l 236 1204 l 260 1093 q 200 1088 238 1090 q 127 1083 163 1085 q 66 1081 92 1082 q 40 1083 40 1081 q 39 1092 40 1085 q 31 1123 38 1099 q 7 1188 24 1147 m 554 1144 q 383 1122 446 1132 q 321 1113 321 1113 l 325 1222 l 542 1269 l 554 1144 z "},"Ô":{"ha":1053,"x_min":-47,"x_max":1111,"o":"m 558 1375 l 844 1278 l 799 1189 l 585 1290 l 404 1169 l 332 1239 l 558 1375 m 883 121 q 763 33 835 71 q 608 -24 690 -4 q 439 -42 526 -43 q 272 -12 351 -40 q 126 75 193 17 q 17 226 58 133 q -39 433 -31 331 q -25 631 -47 536 q 47 811 -3 726 q 168 965 97 896 q 327 1083 239 1033 q 514 1158 415 1133 q 692 1174 608 1183 q 842 1134 775 1164 q 955 1060 908 1104 q 1025 971 1001 1017 q 1090 783 1068 888 q 1099 567 1111 679 q 1036 340 1088 454 q 883 121 985 225 m 699 713 q 640 775 678 756 q 557 792 601 794 q 467 766 513 789 q 383 702 421 743 q 322 603 346 661 q 297 475 297 546 q 317 367 297 408 q 367 305 336 325 q 439 283 399 285 q 519 294 479 281 q 593 335 558 308 q 651 399 628 363 q 702 499 686 453 q 722 583 718 544 q 718 655 725 622 q 699 713 711 688 z "},"Û":{"ha":936,"x_min":31,"x_max":901,"o":"m 468 1375 l 753 1278 l 707 1189 l 493 1290 l 313 1169 l 242 1239 l 468 1375 m 881 1122 q 891 836 888 954 q 897 647 894 718 q 899 535 899 575 q 900 482 900 494 q 900 468 900 469 q 888 307 901 385 q 836 166 874 229 q 736 58 799 103 q 579 -6 674 13 q 331 -12 435 -35 q 159 72 226 11 q 61 227 92 133 q 33 433 31 321 q 33 447 33 433 q 35 506 33 461 q 38 631 36 550 q 43 845 39 711 q 53 1172 47 979 l 450 1104 l 414 451 q 415 388 408 415 q 427 347 421 360 q 435 333 433 335 q 468 315 450 318 q 508 349 486 313 q 517 366 510 350 q 531 422 524 382 q 535 519 538 461 l 506 1054 l 881 1122 z "},"Ù":{"ha":947,"x_min":32,"x_max":903,"o":"m 883 1119 q 893 833 889 951 q 899 644 897 715 q 901 531 900 572 q 901 478 901 490 q 901 464 901 465 q 889 303 903 381 q 838 162 875 225 q 738 53 801 99 q 581 -10 675 8 q 333 -16 438 -39 q 162 68 229 7 q 63 223 94 129 q 35 429 32 317 q 35 453 35 429 q 38 553 36 476 q 44 777 40 631 q 54 1168 47 924 l 451 1100 l 415 447 q 416 383 410 411 q 429 343 422 356 q 438 329 436 331 q 469 311 451 314 q 510 344 488 308 q 518 362 511 346 q 532 418 525 378 q 536 517 539 458 l 507 1050 l 883 1119 m 546 1364 l 663 1083 l 604 1064 l 439 1276 l 546 1364 z "},"$":{"ha":890,"x_min":7,"x_max":886,"o":"m 883 397 q 863 253 886 318 q 794 138 839 188 q 684 55 749 89 q 543 3 619 21 l 543 -136 l 278 -146 l 314 -15 q 153 17 233 -8 q 7 74 72 42 l 113 369 q 163 348 133 361 q 225 324 192 335 q 294 304 258 313 q 364 297 329 296 q 451 315 415 300 q 485 367 486 331 q 461 403 483 390 q 406 428 439 415 q 351 443 385 433 q 279 469 318 453 q 200 510 240 486 q 127 567 160 533 q 74 644 94 600 q 51 744 53 689 q 73 890 49 824 q 140 1006 97 956 q 244 1090 183 1056 q 375 1143 304 1125 l 375 1279 l 640 1289 l 606 1160 q 728 1143 668 1156 q 840 1108 788 1131 l 758 788 q 657 827 703 811 q 550 851 611 843 q 503 854 532 854 q 444 849 474 854 q 394 829 415 843 q 372 790 374 815 q 383 773 372 779 q 408 763 393 767 q 438 756 422 758 q 463 753 454 754 q 526 739 503 744 q 549 733 549 733 q 624 710 588 725 q 712 667 667 692 q 794 605 757 642 q 856 517 831 568 q 883 397 881 467 z "},"!":{"ha":1075,"x_min":414,"x_max":969,"o":"m 583 -43 q 506 -3 540 -28 q 451 50 472 21 q 422 111 429 79 q 425 172 414 143 q 460 222 435 201 q 520 253 485 243 q 597 260 556 263 q 682 244 639 258 q 759 205 725 229 q 815 151 793 181 q 843 90 836 122 q 840 29 850 58 q 806 -20 831 0 q 745 -51 781 -40 q 668 -60 710 -61 q 583 -43 626 -58 m 850 282 q 767 323 814 307 q 668 343 721 339 q 570 340 617 347 q 485 314 524 332 l 558 1275 l 969 1292 l 850 282 z "},"#":{"ha":1363,"x_min":10,"x_max":1357,"o":"m 793 885 l 793 913 q 749 929 749 910 l 749 1010 l 788 1010 l 788 936 q 813 929 788 925 q 836 940 836 932 l 836 1010 l 876 1010 l 876 946 q 832 919 876 928 l 832 893 l 793 885 m 585 1010 l 622 1010 l 622 865 q 646 857 622 849 q 669 876 669 861 l 669 1010 l 708 1010 l 708 889 q 692 861 708 874 q 646 839 675 849 q 585 856 585 819 l 585 1010 m 494 906 l 533 911 l 533 806 q 526 805 533 806 q 508 805 519 804 q 482 808 496 806 q 454 817 468 811 q 397 900 397 840 q 451 988 397 950 q 478 1002 464 996 q 506 1012 493 1008 q 526 1017 518 1015 q 533 1018 533 1018 l 533 997 q 516 992 535 997 q 481 975 497 986 q 436 903 436 947 q 483 839 436 860 l 494 835 l 494 906 m 1228 281 l 1169 315 l 1189 351 l 1196 346 l 1181 321 l 1197 311 l 1213 336 l 1218 333 l 1204 307 l 1226 294 l 1242 322 l 1247 317 l 1228 281 m 1124 240 l 1169 201 l 1163 194 l 1118 233 l 1106 221 l 1101 224 l 1131 258 l 1135 254 l 1124 240 m 1057 172 l 1054 164 q 1040 163 1047 165 q 1036 147 1032 154 q 1051 146 1042 142 l 1056 147 q 1071 150 1064 150 q 1083 143 1078 150 q 1088 128 1090 136 q 1078 113 1085 119 q 1047 113 1061 101 l 1054 119 q 1074 118 1061 111 q 1076 138 1083 128 q 1068 142 1074 142 q 1058 140 1063 142 l 1053 138 q 1039 136 1046 136 q 1029 142 1033 136 q 1026 156 1024 149 q 1036 169 1029 163 q 1057 172 1046 176 m 957 115 l 988 56 l 979 50 l 949 110 l 957 115 m 844 40 l 879 51 l 872 78 l 879 79 l 900 15 l 892 13 l 882 43 l 847 33 l 857 1 l 847 0 l 828 63 l 836 67 l 844 40 m 732 10 l 733 -18 l 725 -19 l 718 47 l 729 49 q 753 46 747 50 q 761 32 760 42 q 736 10 763 13 l 732 10 m 729 42 l 731 18 l 733 18 q 747 21 740 18 q 753 31 754 24 q 745 40 751 39 q 732 42 739 42 l 729 42 m 628 1 l 593 4 l 582 -10 l 572 -10 l 617 56 l 644 -19 l 635 -18 l 628 1 m 625 10 l 614 38 l 599 13 l 625 10 m 486 46 l 499 10 l 488 13 l 476 49 l 474 50 l 464 22 l 456 26 l 478 89 l 489 86 q 498 81 493 83 q 506 75 503 78 q 510 57 514 67 q 486 46 504 42 m 485 78 l 476 56 l 478 53 q 492 51 485 50 q 503 60 500 51 q 499 71 506 67 q 486 78 493 75 l 485 78 m 371 107 l 396 90 l 394 89 q 374 75 388 78 q 346 81 360 72 q 328 105 332 90 q 333 132 325 119 q 357 146 342 143 q 386 140 372 149 q 404 110 401 129 l 396 110 q 382 133 393 125 q 360 138 371 140 q 343 126 349 136 q 338 106 336 117 q 351 88 340 94 q 368 83 358 82 q 383 90 378 83 l 367 100 l 371 107 m 522 399 l 608 432 l 608 769 l 669 796 l 669 457 l 744 488 l 744 828 l 804 851 l 804 354 l 744 333 l 744 436 l 669 407 l 669 304 l 608 279 l 608 381 l 557 360 q 551 366 557 360 q 522 399 546 372 m 1297 943 l 1357 943 l 1357 635 q 1290 540 1357 558 l 1290 429 l 1231 429 l 1231 539 q 1164 628 1164 556 l 1164 936 l 1222 940 l 1222 732 q 1236 614 1236 678 l 1236 601 q 1261 593 1247 593 q 1297 635 1297 596 l 1297 943 m 1107 501 l 1107 422 q 1133 492 1122 456 q 1149 565 1144 528 q 1152 556 1150 560 q 1157 547 1154 551 q 1103 392 1144 464 q 998 266 1061 319 q 853 183 935 213 q 682 153 772 153 q 560 167 618 153 q 450 210 501 182 q 453 214 453 213 q 457 218 454 215 q 563 177 507 192 q 682 163 619 163 q 816 181 751 163 q 935 234 881 200 q 1033 315 990 268 q 1106 419 1076 363 l 1047 413 l 1047 493 q 1042 513 1047 508 q 1021 514 1036 517 l 971 504 l 971 400 l 911 385 l 911 489 l 860 476 l 825 517 q 830 518 825 517 q 854 525 835 519 q 911 542 874 531 l 911 908 q 931 908 914 908 q 977 901 947 908 q 1033 874 1007 893 q 1107 722 1107 819 q 1044 571 1107 642 q 1099 550 1083 571 q 1106 534 1104 543 q 1107 501 1107 525 m 993 578 q 1047 710 1047 636 q 1030 780 1047 753 q 996 819 1013 807 q 978 833 985 829 q 971 836 971 836 l 971 557 q 978 563 971 556 q 993 578 986 569 m 390 247 l 407 249 q 444 301 444 258 l 444 707 l 504 729 l 504 322 q 478 243 504 278 q 407 194 453 208 q 338 201 363 182 q 313 265 313 221 l 313 672 l 371 685 l 371 276 q 381 251 372 256 q 390 247 390 247 m 293 274 l 293 242 l 293 235 q 235 300 264 263 q 207 257 224 278 q 263 189 263 242 l 263 164 q 240 109 263 129 q 179 89 217 89 l 86 89 l 86 201 l 39 201 l 10 257 l 86 257 l 86 654 q 98 651 86 654 q 129 636 110 647 q 178 836 133 743 q 298 999 224 929 q 471 1108 372 1068 q 682 1147 569 1147 q 947 1083 826 1147 q 1143 910 1068 1018 l 1143 857 q 1061 964 1110 915 q 953 1047 1013 1013 q 825 1101 893 1082 q 682 1119 757 1119 q 478 1080 574 1119 q 313 973 383 1040 q 200 815 242 906 q 157 619 158 724 q 176 603 167 613 q 197 583 186 594 q 203 576 201 579 q 202 595 203 586 q 201 614 201 604 q 239 794 201 710 q 342 941 276 878 q 494 1040 407 1004 q 682 1076 582 1076 q 838 1051 764 1076 q 972 982 911 1026 q 1076 877 1032 938 q 1143 744 1121 817 l 1143 699 q 1086 844 1128 776 q 983 960 1044 911 q 845 1038 922 1010 q 682 1065 768 1065 q 499 1030 585 1065 q 350 933 414 994 q 249 789 286 871 q 213 614 213 707 q 217 560 213 586 q 250 490 238 528 q 263 413 263 453 q 277 386 269 399 q 293 361 285 374 l 293 343 q 261 392 275 368 q 249 329 258 358 q 269 301 258 314 q 293 274 281 288 m 208 179 q 185 201 208 201 l 140 201 l 140 147 l 185 147 q 208 171 208 147 l 208 179 m 158 275 q 196 333 183 299 q 208 406 208 368 q 191 490 208 457 q 158 542 174 524 q 145 554 151 549 q 140 560 139 560 l 140 510 q 170 458 156 490 q 186 379 185 426 l 186 378 q 140 503 154 436 l 140 257 l 158 275 m 682 108 q 864 140 778 108 q 1019 226 950 171 q 1134 356 1088 281 q 1199 518 1181 431 q 1210 514 1201 517 l 1210 488 l 1210 460 l 1210 450 q 1131 302 1182 369 q 1012 185 1081 235 q 859 108 943 136 q 682 81 775 81 q 521 104 597 81 q 378 168 444 128 q 382 169 381 169 q 388 171 385 169 q 400 176 394 174 q 411 181 406 178 q 539 127 471 146 q 682 108 607 108 z "}}}
